<svg xmlns="http://www.w3.org/2000/svg" version="1.1" xmlns:xlink="http://www.w3.org/1999/xlink" xmlns:svgjs="http://svgjs.dev/svgjs" width="1000" height="1000" viewBox="0 0 1000 1000"><rect width="1000" height="1000" fill="#010536"></rect><g transform="matrix(0.7,0,0,0.7,149.57575757575756,282.1265587044535)"><svg viewBox="0 0 396 247" data-background-color="#010536" preserveAspectRatio="xMidYMid meet" height="623" width="1000" xmlns="http://www.w3.org/2000/svg" xmlns:xlink="http://www.w3.org/1999/xlink"><g id="tight-bounds" transform="matrix(1,0,0,1,0.2400000000000091,-0.09999999999999432)"><svg viewBox="0 0 395.52 247.2" height="247.2" width="395.52"><g><svg></svg></g><g><svg viewBox="0 0 395.52 247.2" height="247.2" width="395.52"><g transform="matrix(1,0,0,1,75.54432,72.52236411811651)"><svg viewBox="0 0 244.43135999999998 102.15527176376695" height="102.15527176376695" width="244.43135999999998"><g><svg viewBox="0 0 244.43135999999998 102.15527176376695" height="102.15527176376695" width="244.43135999999998"><g><svg viewBox="0 0 244.43136 102.15527176376696" height="102.15527176376695" width="244.43135999999998"><g><svg viewBox="0 0 244.43136 102.15527176376696" height="102.15527176376696" width="244.43136"><g id="textblocktransform"><svg viewBox="0 0 244.43136 102.15527176376696" height="102.15527176376696" width="244.43136" id="textblock"><g><svg viewBox="0 0 244.43136 102.15527176376696" height="102.15527176376696" width="244.43136"><g transform="matrix(1,0,0,1,0,0)"><svg width="244.43136" viewBox="1.2 -37.87 91.75999999999999 38.36" height="102.15527176376696" data-palette-color="#fbfbf8"><path d="M1.2 0L13.43-37.35 19.12-37.35 32.18 0 27.76 0 24.05-10.96 9.01-10.96 5.49 0 1.2 0ZM10.13-14.45L22.88-14.45 16.28-34.06 15.53-31.27 10.13-14.45ZM61.86-27.78L61.86-27.78Q61.86-20.26 56.17-19.51L56.17-19.51 56.17-19.43Q59.69-19.17 61.42-17.43L61.42-17.43Q63.43-15.38 63.43-11.49 63.43-7.59 62.53-5.44 61.64-3.3 60.06-2.1L60.06-2.1Q57.35 0 51.54 0L51.54 0 39.06 0 39.06-37.23Q45.82-37.87 50.22-37.87 54.61-37.87 56.66-37.19 58.71-36.52 59.86-35.25L59.86-35.25Q61.86-33.03 61.86-27.78ZM43.21-20.68L48.7-20.68Q53.61-20.68 55.52-22.07L55.52-22.07Q57.69-23.63 57.69-27.88L57.69-27.88 57.69-28.39Q57.69-31.67 56.25-33.06L56.25-33.06Q54.81-34.42 51.34-34.42L51.34-34.42Q48.44-34.42 46.41-34.3L46.41-34.3 43.21-34.11 43.21-20.68ZM43.21-3.47L52.05-3.47Q55.64-3.47 57.18-4.83L57.18-4.83Q59.1-6.57 59.1-11.04L59.1-11.04Q59.1-16.21 55.32-17.09L55.32-17.09Q54.17-17.36 52.83-17.36L52.83-17.36 43.21-17.36 43.21-3.47ZM68.67-2.47L70.28-5.88Q75.83-2.95 81.12-2.95L81.12-2.95Q87.28-2.95 88.33-6.88L88.33-6.88Q88.67-8.18 88.67-9.86L88.67-9.86 88.67-10.82Q88.67-12.52 88.42-13.57 88.18-14.62 87.4-15.28L87.4-15.28Q86.13-16.38 81.39-17.11L81.39-17.11Q77.17-17.77 75.56-18.36 73.95-18.95 72.91-19.64 71.87-20.34 71.14-21.39L71.14-21.39Q69.62-23.58 69.62-27.47L69.62-27.47 69.62-27.71Q69.62-35.77 76.31-37.35L76.31-37.35Q78.44-37.84 81.12-37.84L81.12-37.84 81.44-37.84Q87.71-37.84 91.69-36.04L91.69-36.04 90.42-32.3Q85.62-34.38 81.56-34.38L81.56-34.38 81.34-34.38Q76.87-34.38 75.19-32.69L75.19-32.69Q73.77-31.27 73.77-27.78L73.77-27.78 73.77-27.69Q73.77-23.71 75.97-22.46L75.97-22.46Q77.46-21.66 81.31-21.04 85.15-20.43 87.03-20.01 88.91-19.58 90.23-18.6L90.23-18.6Q92.96-16.55 92.96-10.82L92.96-10.82 92.96-10.5Q92.96-1.73 85.91-0.05L85.91-0.05Q83.74 0.49 81.81 0.49 79.88 0.49 78.3 0.35 76.73 0.22 75.09-0.12L75.09-0.12Q71.26-0.9 68.67-2.47L68.67-2.47Z" opacity="1" transform="matrix(1,0,0,1,0,0)" fill="#fbfbf8" class="wordmark-text-0" data-fill-palette-color="primary" id="text-0"></path></svg></g></svg></g></svg></g></svg></g></svg></g></svg></g></svg></g><path d="M167.769 66.522L167.769 15.403 384.163 15.403 384.163 231.797 167.769 231.797 167.769 180.678 176.981 180.678 176.981 222.585 374.95 222.585 374.95 24.615 176.981 24.615 176.981 66.522Z" fill="#fbfbf8" stroke="transparent" data-fill-palette-color="primary"></path></svg></g><defs></defs></svg><rect width="395.52" height="247.2" fill="none" stroke="none" visibility="hidden"></rect></g></svg></g></svg>